<svg width="200" height="200" viewBox="0 0 105 29" fill="none" xmlns="http://www.w3.org/2000/svg">
<path d="M14.9375 1.15625H7.07812C5.77604 1.15625 3.94792 1.11458 1.59375 1.03125V1.76562C3.98958 1.99479 5.19792 2.49479 5.21875 3.26562C5.32292 5.71354 5.375 8.625 5.375 12C5.375 15.3021 5.3125 18.5885 5.1875 21.8594C5.16667 22.6302 3.95833 23.1302 1.5625 23.3594C1.52083 23.724 1.52083 23.9688 1.5625 24.0938C3.57292 24.0312 8.24479 24 15.5781 24C18.1406 24 20.0677 23.5625 21.3594 22.6875C22.651 21.8125 23.8177 20.3073 24.8594 18.1719C24.776 18.0052 24.5938 17.8698 24.3125 17.7656C22.4167 21.2865 18.9219 23.0469 13.8281 23.0469H8.1875C8.08333 18.4948 8.03125 15.1667 8.03125 13.0625L13.125 13.0312C13.5729 13.0312 13.9896 13.1042 14.375 13.25C14.7708 13.3958 15.0833 13.5469 15.3125 13.7031C15.5521 13.849 15.8281 14.1354 16.1406 14.5625C16.4531 14.9896 16.6719 15.3021 16.7969 15.5C16.9219 15.6875 17.1406 16.0833 17.4531 16.6875C17.7656 17.2917 17.974 17.6823 18.0781 17.8594C18.401 17.724 18.6042 17.5833 18.6875 17.4375C17.6458 15.6667 17.125 14.0365 17.125 12.5469C17.125 11.901 17.2708 11.1146 17.5625 10.1875C17.8646 9.26042 18.2396 8.41146 18.6875 7.64062C18.6042 7.49479 18.401 7.35938 18.0781 7.23438C17.9948 7.38021 17.8281 7.69271 17.5781 8.17188C17.3385 8.65104 17.1771 8.96354 17.0938 9.10938C17.0208 9.24479 16.8698 9.5 16.6406 9.875C16.4219 10.25 16.25 10.5 16.125 10.625C16 10.75 15.8125 10.9375 15.5625 11.1875C15.3229 11.4271 15.0885 11.5938 14.8594 11.6875C14.6406 11.7708 14.3802 11.849 14.0781 11.9219C13.776 11.9948 13.4583 12.0312 13.125 12.0312C10.8854 12.0312 9.1875 12.0104 8.03125 11.9688C8.03125 9.44792 8.09375 6.16146 8.21875 2.10938H13.1875C18.2812 2.10938 21.776 3.86979 23.6719 7.39062C23.9531 7.28646 24.1354 7.14583 24.2188 6.96875C23.1771 4.84375 22.0104 3.34375 20.7188 2.46875C19.4271 1.59375 17.5 1.15625 14.9375 1.15625ZM17.0938 7.75L17.7656 6.4375C18.6406 6.75 19.1927 7.15104 19.4219 7.64062C18.9531 8.45312 18.5573 9.33333 18.2344 10.2812C17.9219 11.2188 17.7656 11.974 17.7656 12.5469C17.7656 13.9323 18.3177 15.5625 19.4219 17.4375C19.1719 17.9688 18.6406 18.375 17.8281 18.6562C17.4427 18.0208 17.1615 17.5312 16.9844 17.1875C16.5573 16.4792 16.2188 15.9531 15.9688 15.6094C15.7292 15.2552 15.3646 14.901 14.875 14.5469C14.3854 14.1927 13.8438 14.0052 13.25 13.9844H10.4375C10.4375 16.2865 10.4792 19.0938 10.5625 22.4062H13.7969C16.4427 22.4062 18.5938 21.8906 20.25 20.8594C21.9167 19.8177 23.1771 18.5156 24.0312 16.9531C24.9062 17.276 25.4583 17.6823 25.6875 18.1719C24.3229 20.4323 23.5156 22.5885 23.2656 24.6406H10.2969C6.18229 24.6406 3.125 24.6719 1.125 24.7344C0.90625 24.0573 0.895833 23.3958 1.09375 22.75C3.375 22.5208 4.52604 22.2135 4.54688 21.8281C4.67188 18.5573 4.73438 15.2812 4.73438 12C4.73438 8.64583 4.68229 5.74479 4.57812 3.29688C4.55729 2.91146 3.39583 2.60417 1.09375 2.375C0.895833 1.64583 0.916667 0.973958 1.15625 0.359375C4.35417 0.463542 6.47396 0.515625 7.51562 0.515625H22.625C22.875 2.55729 23.6875 4.70833 25.0625 6.96875C24.8229 7.46875 24.2656 7.875 23.3906 8.1875C22.5365 6.63542 21.276 5.34375 19.6094 4.3125C17.9531 3.27083 15.8021 2.75 13.1562 2.75H10.5938C10.4896 6.48958 10.4375 9.35938 10.4375 11.3594C11.0938 11.3802 12.0417 11.3906 13.2812 11.3906C14.1562 11.3906 14.8542 11.099 15.375 10.5156C15.8958 9.92188 16.4688 9 17.0938 7.75Z" fill="#33F84D"/>
<path d="M37.1816 24.3906L38.9688 16.627C39.2031 15.6113 39.3203 14.7422 39.3203 14.0195C39.3203 13.5703 39.2747 13.1732 39.1836 12.8281C38.8125 11.4219 38.0182 10.7188 36.8008 10.7188C35.5898 10.7188 34.4701 11.4219 33.4414 12.8281C32.7904 13.7201 32.276 14.9863 31.8984 16.627C31.6641 17.6491 31.5469 18.5215 31.5469 19.2441C31.5469 19.6934 31.5924 20.0872 31.6836 20.4258C31.9831 21.5521 32.6536 22.3887 33.6953 22.9355L32.6309 24.3906H32.5332C31.2181 23.9089 30.3164 22.8411 29.8281 21.1875C29.6719 20.6602 29.5938 20.0612 29.5938 19.3906C29.5938 18.5768 29.7109 17.6556 29.9453 16.627C30.388 14.7259 31.0521 13.2057 31.9375 12.0664C33.4935 10.0612 35.2415 9.05859 37.1816 9.05859C39.0957 9.05859 40.375 10.0384 41.0195 11.998C42.5625 10.0384 44.291 9.05859 46.2051 9.05859C48.1452 9.05859 49.431 10.0612 50.0625 12.0664C50.2253 12.5807 50.3066 13.1732 50.3066 13.8438C50.3066 14.6641 50.1862 15.5918 49.9453 16.627C49.4961 18.5605 48.8385 20.0026 47.9727 20.9531C47.4323 21.5456 46.8887 22.0078 46.3418 22.3398H49.1152L49.0957 22.4375L48.002 24H42.6016L42.6211 23.9023L43.7148 22.3398C44.6654 22.0404 45.5085 21.4284 46.2441 20.5039C47.0449 19.4948 47.6276 18.2025 47.9922 16.627C48.2266 15.6113 48.3438 14.7422 48.3438 14.0195C48.3438 13.5703 48.2982 13.1732 48.207 12.8281C47.8359 11.4219 47.0417 10.7188 45.8242 10.7188C44.6133 10.7188 43.4935 11.4219 42.4648 12.8281C41.8203 13.707 41.306 14.9733 40.9219 16.627L39.3398 23.5117L37.2793 24.3906H37.1816ZM50.5509 24H50.3109L56.2909 10L56.5109 9.9L61.5509 24H59.8509L58.2909 19.6H52.4509L50.5509 24ZM55.6709 12.16L52.5309 19.4H58.2309L55.6709 12.16ZM65.1323 28.86C64.6123 28.86 64.1123 28.6667 63.6323 28.28C63.1523 27.9067 62.739 27.2867 62.3923 26.42C62.2723 26.1133 62.1857 25.7933 62.1323 25.46C62.079 25.1267 62.0523 24.7933 62.0523 24.46C62.0523 23.9133 62.1123 23.3667 62.2323 22.82C62.3523 22.2733 62.5057 21.76 62.6923 21.28C62.839 20.9333 63.0457 20.5467 63.3123 20.12C63.579 19.68 63.8323 19.32 64.0723 19.04C64.1523 18.96 64.2523 18.8733 64.3723 18.78C64.4923 18.6733 64.5723 18.62 64.6123 18.62C64.6257 18.62 64.6323 18.6267 64.6323 18.64C64.6323 18.68 64.519 18.84 64.2923 19.12C63.7457 19.7867 63.339 20.5467 63.0723 21.4C62.819 22.24 62.6923 23.0733 62.6923 23.9C62.6923 24.3933 62.7323 24.8667 62.8123 25.32C62.9057 25.7733 63.0257 26.1933 63.1723 26.58C63.4523 27.2867 63.7523 27.7933 64.0723 28.1C64.4057 28.4067 64.7523 28.56 65.1123 28.56C65.5657 28.56 66.0257 28.3667 66.4923 27.98C66.959 27.5933 67.4123 27.08 67.8523 26.44C68.3057 25.8 68.7257 25.1067 69.1123 24.36C69.499 23.6133 69.8323 22.8733 70.1123 22.14C70.4057 21.3933 70.619 20.7267 70.7523 20.14L71.0523 18.9C70.9857 18.8867 70.9523 18.86 70.9523 18.82C70.9523 18.7533 71.0057 18.6867 71.1123 18.62C71.2723 17.9 71.3923 17.1933 71.4723 16.5C71.5657 15.8067 71.6123 15.1667 71.6123 14.58C71.6123 13.94 71.5523 13.38 71.4323 12.9C71.3257 12.4067 71.1457 12.0333 70.8923 11.78C70.7857 11.6733 70.6657 11.62 70.5323 11.62C70.439 11.62 70.339 11.6467 70.2323 11.7C70.139 11.7533 70.0457 11.82 69.9523 11.9C69.859 11.9933 69.8457 11.9733 69.9123 11.84C69.9923 11.6933 70.119 11.5333 70.2923 11.36C70.479 11.1867 70.679 11.1 70.8923 11.1C71.0123 11.1 71.1323 11.14 71.2523 11.22C71.679 11.5133 71.979 11.96 72.1523 12.56C72.339 13.16 72.4323 13.8533 72.4323 14.64C72.4323 15.16 72.399 15.7067 72.3323 16.28C72.2657 16.8533 72.1723 17.44 72.0523 18.04C72.079 18.0667 72.099 18.1 72.1123 18.14C72.139 18.18 72.1657 18.22 72.1923 18.26C73.8057 17.74 75.099 17.1867 76.0723 16.6C77.059 16.0133 77.7723 15.42 78.2123 14.82C78.6657 14.22 78.8923 13.6467 78.8923 13.1C78.8923 12.5267 78.679 12.0133 78.2523 11.56C77.8257 11.1067 77.239 10.7467 76.4923 10.48C75.7457 10.2133 74.8857 10.08 73.9123 10.08C73.0057 10.08 72.0657 10.2067 71.0923 10.46C70.2123 10.7 69.3723 11.0533 68.5723 11.52C67.7857 11.9733 67.079 12.48 66.4523 13.04C65.839 13.6 65.339 14.1533 64.9523 14.7C64.579 15.2467 64.3657 15.7267 64.3123 16.14C64.2857 16.4333 64.2323 16.6467 64.1523 16.78C64.0857 16.9133 64.019 16.98 63.9523 16.98C63.7523 16.98 63.6523 16.74 63.6523 16.26C63.6523 16.1933 63.6523 16.1267 63.6523 16.06C63.6657 15.9933 63.679 15.9267 63.6923 15.86C63.7723 15.26 64.039 14.66 64.4923 14.06C64.959 13.46 65.5457 12.9 66.2523 12.38C66.9723 11.8467 67.759 11.3733 68.6123 10.96C69.4657 10.5467 70.319 10.2267 71.1723 10C71.719 9.85333 72.2523 9.74667 72.7723 9.68C73.3057 9.61333 73.819 9.58 74.3123 9.58C75.3923 9.58 76.3457 9.72667 77.1723 10.02C77.999 10.3133 78.6457 10.7133 79.1123 11.22C79.579 11.7133 79.8123 12.28 79.8123 12.92C79.8123 13.4533 79.6123 14.02 79.2123 14.62C78.8123 15.22 78.1723 15.82 77.2923 16.42C76.4123 17.02 75.2523 17.6 73.8123 18.16C73.519 18.2667 73.2523 18.36 73.0123 18.44C72.7857 18.52 72.579 18.5933 72.3923 18.66C72.659 19.14 73.0057 19.7 73.4323 20.34C73.859 20.98 74.3123 21.6267 74.7923 22.28C75.2857 22.9333 75.7723 23.5267 76.2523 24.06C76.7323 24.5933 77.1657 25 77.5523 25.28C77.7923 25.4533 78.0723 25.6267 78.3923 25.8C78.7257 25.9867 79.0457 26.08 79.3523 26.08C79.659 26.08 79.8923 25.9933 80.0523 25.82C80.2123 25.66 80.3257 25.4533 80.3923 25.2C80.459 24.9467 80.4923 24.6933 80.4923 24.44C80.4923 23.5733 80.239 22.7733 79.7323 22.04C79.6923 21.9733 79.6723 21.9333 79.6723 21.92C79.6723 21.88 79.6923 21.86 79.7323 21.86C79.8123 21.86 79.8923 21.9133 79.9723 22.02C80.239 22.34 80.4523 22.7133 80.6123 23.14C80.7723 23.5667 80.8523 23.9933 80.8523 24.42C80.8523 25.0733 80.659 25.62 80.2723 26.06C79.899 26.5133 79.3857 26.74 78.7323 26.74C78.0523 26.74 77.419 26.5533 76.8323 26.18C76.259 25.8067 75.7257 25.3133 75.2323 24.7C74.739 24.0867 74.2923 23.4267 73.8923 22.72C73.4923 22 73.139 21.2933 72.8323 20.6C72.5257 19.9067 72.259 19.2933 72.0323 18.76L71.8923 18.8C71.679 19.72 71.4323 20.6133 71.1523 21.48C70.8857 22.3467 70.6057 23.1333 70.3123 23.84C69.9523 24.72 69.4857 25.54 68.9123 26.3C68.3523 27.0733 67.739 27.6933 67.0723 28.16C66.419 28.6267 65.7723 28.86 65.1323 28.86ZM90.834 12.6523C90.7624 12.6654 90.7005 12.6849 90.6484 12.7109C90.6029 12.7305 90.5605 12.7533 90.5215 12.7793C90.4889 12.8053 90.4727 12.8346 90.4727 12.8672C90.4727 12.8932 90.4238 12.929 90.3262 12.9746C90.2285 13.0202 90.1178 13.069 89.9941 13.1211C89.8704 13.1732 89.7467 13.2253 89.623 13.2773C89.5059 13.3229 89.4245 13.3555 89.3789 13.375C89.2878 13.4271 89.1966 13.4661 89.1055 13.4922C89.0143 13.5182 88.9329 13.5508 88.8613 13.5898C88.7376 13.6615 88.6432 13.7298 88.5781 13.7949C88.513 13.8535 88.4479 13.8828 88.3828 13.8828C88.1549 13.8828 87.9531 13.8698 87.7773 13.8438C87.6016 13.8177 87.4388 13.8047 87.2891 13.8047C87.1328 13.8047 87.0156 13.873 86.9375 14.0098C86.8659 14.1465 86.8105 14.3158 86.7715 14.5176C86.7389 14.7194 86.7129 14.9342 86.6934 15.1621C86.6803 15.39 86.651 15.5951 86.6055 15.7773C86.5664 15.9141 86.5339 16.0866 86.5078 16.2949C86.4883 16.4967 86.4655 16.7083 86.4395 16.9297C86.4199 17.151 86.4004 17.3724 86.3809 17.5938C86.3613 17.8151 86.3385 18.0137 86.3125 18.1895C86.2865 18.3392 86.2539 18.4661 86.2148 18.5703C86.1758 18.668 86.1562 18.7819 86.1562 18.9121C86.1562 18.9772 86.1562 19.0423 86.1562 19.1074C86.1628 19.166 86.166 19.2279 86.166 19.293C86.166 19.5078 86.1465 19.7292 86.1074 19.957C86.0684 20.1784 86.0391 20.39 86.0195 20.5918C85.9935 20.8197 85.9805 21.0312 85.9805 21.2266C85.9805 21.4219 85.9707 21.5977 85.9512 21.7539C85.9382 21.806 85.9121 21.8678 85.873 21.9395C85.8405 22.0111 85.8145 22.0957 85.7949 22.1934C85.7949 22.1999 85.7917 22.2617 85.7852 22.3789C85.7786 22.4961 85.7689 22.6263 85.7559 22.7695C85.7493 22.9128 85.7428 23.0462 85.7363 23.1699C85.7298 23.2871 85.7266 23.3522 85.7266 23.3652C85.7721 23.4173 85.8372 23.4434 85.9219 23.4434C86.0521 23.4434 86.1953 23.4206 86.3516 23.375C86.5078 23.3294 86.6803 23.3066 86.8691 23.3066C86.9863 23.3066 87.0677 23.349 87.1133 23.4336C87.1003 23.5247 87.0677 23.5866 87.0156 23.6191C86.9635 23.6517 86.8984 23.6745 86.8203 23.6875C86.7422 23.694 86.6576 23.6973 86.5664 23.6973C86.4753 23.6973 86.3906 23.707 86.3125 23.7266C86.2474 23.7396 86.1758 23.7624 86.0977 23.7949C86.026 23.821 85.9512 23.847 85.873 23.873C85.7624 23.9056 85.6484 23.9251 85.5312 23.9316C85.4206 23.9316 85.3392 23.9609 85.2871 24.0195C85.235 24.0781 85.1732 24.1432 85.1016 24.2148C85.0299 24.2865 84.929 24.3223 84.7988 24.3223C84.6882 24.3223 84.571 24.3092 84.4473 24.2832C84.3301 24.2572 84.1966 24.2441 84.0469 24.2441C83.9102 24.2441 83.7799 24.2572 83.6562 24.2832C83.5326 24.3092 83.4121 24.3353 83.2949 24.3613C83.1842 24.3939 83.0801 24.4199 82.9824 24.4395C82.8913 24.4655 82.8099 24.4785 82.7383 24.4785C82.6602 24.4785 82.5951 24.4557 82.543 24.4102C82.4909 24.3711 82.4648 24.3158 82.4648 24.2441C82.4648 24.2116 82.4779 24.1693 82.5039 24.1172C82.5365 24.0651 82.5788 24.0163 82.6309 23.9707C82.6829 23.9186 82.7415 23.8763 82.8066 23.8438C82.8783 23.8112 82.9564 23.7949 83.041 23.7949C83.0736 23.7949 83.1257 23.8047 83.1973 23.8242C83.2689 23.8372 83.3503 23.8438 83.4414 23.8438C83.5195 23.8438 83.5879 23.8405 83.6465 23.834C83.7116 23.8275 83.7702 23.8079 83.8223 23.7754C83.8743 23.7428 83.9232 23.694 83.9688 23.6289C84.0208 23.5638 84.0729 23.4759 84.125 23.3652C84.1576 23.2936 84.1803 23.2188 84.1934 23.1406C84.2129 23.0625 84.2227 22.9746 84.2227 22.877C84.2292 22.7793 84.2357 22.6686 84.2422 22.5449C84.2487 22.4212 84.2585 22.2812 84.2715 22.125C84.2715 22.0664 84.2975 21.9785 84.3496 21.8613C84.4017 21.7441 84.4277 21.6107 84.4277 21.4609C84.4277 21.3893 84.4245 21.321 84.418 21.2559C84.4115 21.1908 84.4082 21.1322 84.4082 21.0801C84.4082 20.9694 84.4245 20.862 84.457 20.7578C84.4896 20.6536 84.5254 20.5267 84.5645 20.377V20.3281C84.5645 20.3086 84.5612 20.2891 84.5547 20.2695C84.5547 20.2435 84.5547 20.2207 84.5547 20.2012C84.6133 20.1426 84.6556 20.0384 84.6816 19.8887C84.7077 19.7389 84.7272 19.5697 84.7402 19.3809C84.7598 19.1855 84.776 18.9837 84.7891 18.7754C84.8021 18.5605 84.8249 18.3652 84.8574 18.1895C84.8574 18.1829 84.8704 18.1146 84.8965 17.9844C84.929 17.8477 84.9648 17.6914 85.0039 17.5156C85.043 17.3398 85.0755 17.1641 85.1016 16.9883C85.1341 16.806 85.1504 16.666 85.1504 16.5684C85.1504 16.5098 85.1471 16.4512 85.1406 16.3926C85.1406 16.334 85.1406 16.2786 85.1406 16.2266C85.1406 16.1159 85.1536 15.9596 85.1797 15.7578C85.2122 15.556 85.2448 15.3444 85.2773 15.123C85.3099 14.8952 85.3392 14.6771 85.3652 14.4688C85.3978 14.2604 85.4141 14.0944 85.4141 13.9707C85.4141 13.8991 85.3978 13.8503 85.3652 13.8242C85.3327 13.7917 85.2415 13.7754 85.0918 13.7754C84.7793 13.7754 84.4733 13.7949 84.1738 13.834C83.8743 13.873 83.6009 13.9219 83.3535 13.9805C83.1126 14.0326 82.9108 14.0846 82.748 14.1367C82.5853 14.1888 82.4844 14.2279 82.4453 14.2539C82.4193 14.2734 82.3802 14.319 82.3281 14.3906C82.276 14.4557 82.2174 14.5273 82.1523 14.6055C82.0872 14.6836 82.0189 14.7552 81.9473 14.8203C81.8757 14.8789 81.804 14.9082 81.7324 14.9082C81.6868 14.9082 81.638 14.8919 81.5859 14.8594C81.5404 14.8203 81.5176 14.778 81.5176 14.7324C81.5176 14.6934 81.5501 14.6315 81.6152 14.5469C81.6803 14.4622 81.7585 14.3711 81.8496 14.2734C81.9408 14.1758 82.0352 14.0814 82.1328 13.9902C82.2305 13.8926 82.3118 13.8112 82.377 13.7461C82.4486 13.681 82.5332 13.5964 82.6309 13.4922C82.735 13.388 82.8359 13.2871 82.9336 13.1895C83.0378 13.0918 83.1387 13.0072 83.2363 12.9355C83.334 12.8574 83.4121 12.8086 83.4707 12.7891C83.5293 12.776 83.6139 12.763 83.7246 12.75C83.8353 12.7305 83.9102 12.7207 83.9492 12.7207C84.0534 12.7207 84.1673 12.7337 84.291 12.7598C84.4212 12.7793 84.5352 12.7891 84.6328 12.7891C84.737 12.7891 84.8379 12.7793 84.9355 12.7598C85.0332 12.7337 85.1276 12.7207 85.2188 12.7207C85.3164 12.7207 85.4206 12.7337 85.5312 12.7598C85.6419 12.7858 85.7331 12.7988 85.8047 12.7988C85.9284 12.7988 86.0391 12.7565 86.1367 12.6719C86.2409 12.5872 86.3353 12.4928 86.4199 12.3887C86.5111 12.2845 86.5924 12.1901 86.6641 12.1055C86.7357 12.0208 86.8008 11.9785 86.8594 11.9785C86.9505 11.9785 87.0124 11.998 87.0449 12.0371C87.0775 12.0762 87.0938 12.1152 87.0938 12.1543C87.0938 12.1999 87.0807 12.2487 87.0547 12.3008C87.0352 12.3464 87.0124 12.3919 86.9863 12.4375C86.9603 12.4831 86.9342 12.5286 86.9082 12.5742C86.8887 12.6133 86.8789 12.6491 86.8789 12.6816C86.8789 12.7207 86.8984 12.7565 86.9375 12.7891C86.9831 12.8151 87.0384 12.8379 87.1035 12.8574C87.1751 12.8704 87.2467 12.8802 87.3184 12.8867C87.3965 12.8932 87.4714 12.8965 87.543 12.8965C87.6536 12.8965 87.7611 12.8932 87.8652 12.8867C87.9694 12.8737 88.0638 12.8672 88.1484 12.8672C88.181 12.8672 88.2168 12.8802 88.2559 12.9062C88.3014 12.9258 88.3307 12.9355 88.3438 12.9355C88.3698 12.9355 88.4154 12.9258 88.4805 12.9062C88.5456 12.8867 88.6204 12.877 88.7051 12.877H88.9785C89.1543 12.877 89.3366 12.8411 89.5254 12.7695C89.7142 12.6914 89.9062 12.6003 90.1016 12.4961C90.1602 12.4766 90.2122 12.4473 90.2578 12.4082C90.3034 12.3691 90.349 12.3333 90.3945 12.3008C90.4401 12.2617 90.4824 12.2292 90.5215 12.2031C90.5671 12.1771 90.6159 12.1641 90.668 12.1641C90.8047 12.1641 90.873 12.2259 90.873 12.3496C90.873 12.3822 90.8633 12.4115 90.8438 12.4375C90.8307 12.4635 90.8242 12.4928 90.8242 12.5254C90.8242 12.5384 90.8242 12.5579 90.8242 12.584C90.8307 12.6035 90.834 12.6198 90.834 12.6328V12.6523ZM97.8064 10.36C97.8597 10.3333 98.0997 10.3333 98.5264 10.36C99.0197 10.36 99.7331 10.4133 100.666 10.52C101.506 10.6133 102.14 10.66 102.566 10.66H102.926L103.126 10.56C103.406 10.4267 103.666 10.3533 103.906 10.34C104.053 10.34 104.153 10.3533 104.206 10.38C104.313 10.4333 104.366 10.5133 104.366 10.62C104.366 10.7533 104.2 11.0267 103.866 11.44C103.8 11.52 103.693 11.6467 103.546 11.82C102.626 12.9267 101.546 14.1267 100.306 15.42L99.8464 15.9L100.126 15.94L100.546 15.98H100.566C100.9 16.0467 101.113 16.1933 101.206 16.42C101.34 16.7133 101.213 17.0067 100.826 17.3C100.573 17.4867 100.3 17.58 100.006 17.58C99.8864 17.58 99.8064 17.56 99.7664 17.52C99.6864 17.4667 99.6397 17.4333 99.6264 17.42C99.5997 17.38 99.5797 17.36 99.5664 17.36C99.5264 17.32 99.2864 17.2867 98.8464 17.26L98.5064 17.24L97.9664 17.76C96.5931 19.0933 95.0931 20.4733 93.4664 21.9L93.3464 21.98L93.7064 22C94.3997 22 95.4931 22.0533 96.9864 22.16C97.8397 22.24 98.6397 22.2933 99.3864 22.32L100.026 22.34L100.086 22.28C100.393 21.92 100.64 21.4333 100.826 20.82C100.88 20.6333 100.953 20.4733 101.046 20.34C101.366 19.9533 101.806 19.6733 102.366 19.5C102.406 19.4867 102.446 19.4733 102.486 19.46C102.766 19.3933 102.98 19.3933 103.126 19.46C103.233 19.5267 103.273 19.62 103.246 19.74C103.206 20.02 103.093 20.36 102.906 20.76C102.706 21.2 102.46 21.6067 102.166 21.98C101.886 22.3 101.586 22.6 101.266 22.88C100.506 23.4933 99.7264 23.8533 98.9264 23.96C98.4331 24.04 97.1864 24 95.1864 23.84C93.4664 23.6933 92.3731 23.6333 91.9064 23.66C91.5731 23.6733 91.2597 23.7333 90.9664 23.84C90.6464 23.9467 90.4064 24 90.2464 24C90.0864 24 89.9731 23.9667 89.9064 23.9C89.8531 23.82 89.8331 23.7333 89.8464 23.64C89.9131 23.4267 90.1664 23.1267 90.6064 22.74C90.6464 22.7133 90.6864 22.68 90.7264 22.64C92.8331 20.84 94.7264 19.1333 96.4064 17.52L96.6864 17.24H95.8064H94.9464L94.8464 17.16C94.7131 17.0667 94.6464 16.9467 94.6464 16.8C94.6864 16.48 94.9264 16.22 95.3664 16.02C95.5397 15.94 95.9064 15.9 96.4664 15.9C96.5464 15.9 96.6864 15.9 96.8864 15.9H98.0464L98.5464 15.38C99.6131 14.2333 100.406 13.3533 100.926 12.74L101.266 12.34H100.766C100.18 12.3133 99.5064 12.26 98.7464 12.18C97.3197 12.02 96.4131 11.9933 96.0264 12.1C95.8397 12.1533 95.6731 12.26 95.5264 12.42C95.4064 12.5933 95.3131 12.7867 95.2464 13C95.1797 13.1733 95.1397 13.2667 95.1264 13.28C94.8997 13.6133 94.5264 13.9067 94.0064 14.16C93.7664 14.2667 93.5264 14.3267 93.2864 14.34C93.1397 14.34 93.0397 14.3267 92.9864 14.3C92.8797 14.2333 92.8264 14.1533 92.8264 14.06C92.8264 13.9133 92.9064 13.68 93.0664 13.36C93.5064 12.4533 94.3064 11.6933 95.4664 11.08C96.1464 10.72 96.8331 10.4933 97.5264 10.4C97.6864 10.3733 97.7797 10.36 97.8064 10.36Z" fill="#0AD4F3"/>
</svg>
